<?xml version="1.0" standalone="no"?><!DOCTYPE svg PUBLIC "-//W3C//DTD SVG 1.1//EN" "http://www.w3.org/Graphics/SVG/1.1/DTD/svg11.dtd"><svg t="1733192964434" class="icon" viewBox="0 0 1024 1024" version="1.1" xmlns="http://www.w3.org/2000/svg" p-id="81264" xmlns:xlink="http://www.w3.org/1999/xlink" width="200" height="200"><path d="M512 977.455L93.09 768v-93.09L512 884.363z" fill="#6EACFF" p-id="81265"></path><path d="M512 977.455L930.91 768v-93.09L512 884.363z" fill="#458FFF" p-id="81266"></path><path d="M93.09 674.91L512 465.454l418.91 209.454L512 884.364z" fill="#1C6DFF" p-id="81267"></path><path d="M512 768L93.09 558.545v-93.09L512 674.909z" fill="#CBFFE6" opacity=".8" p-id="81268"></path><path d="M512 768l418.91-209.455v-93.09L512 674.909z" fill="#6FE5B6" opacity=".8" p-id="81269"></path><path d="M93.09 465.455L512 256l418.91 209.455L512 674.909z" fill="#20CB94" opacity=".8" p-id="81270"></path><path d="M512 558.545L93.09 349.091V256L512 465.455z" fill="#6EACFF" opacity=".8" p-id="81271"></path><path d="M512 558.545l418.91-209.454V256L512 465.455z" fill="#458FFF" opacity=".8" p-id="81272"></path><path d="M93.09 256L512 46.545 930.91 256 512 465.455z" fill="#1C6DFF" opacity=".8" p-id="81273"></path></svg>